<?xml version="1.0" encoding="iso-8859-1"?>
<!-- Generator: Adobe Illustrator 19.0.0, SVG Export Plug-In . SVG Version: 6.00 Build 0)  -->
<svg version="1.1" id="Layer_1" xmlns="http://www.w3.org/2000/svg" xmlns:xlink="http://www.w3.org/1999/xlink" x="0px" y="0px"
	 viewBox="0 0 512.853 512.853" style="enable-background:new 0 0 512.853 512.853;" xml:space="preserve">
<g transform="translate(1 1)">
	<path style="fill:#CCCCCC;" d="M162.84,393.667l50.347-27.307c0,0,0,0,0.853,0l24.747-13.653
		C249.027,347.587,255,336.493,255,325.4v-31.573c0,0-9.387-11.093-17.92-28.16l0,0l0,0c-0.853-2.56-2.56-5.12-3.413-6.827
		c0,0,0-0.853-0.853-0.853c-0.853-2.56-2.56-5.12-3.413-7.68c0,0,0,0,0-0.853c-0.853-2.56-1.707-5.12-2.56-7.68
		c0-0.853-0.853-1.707-0.853-2.56c-0.853-2.56-1.707-5.973-2.56-8.533c-5.973-5.12-11.093-12.8-11.093-22.187V174.36
		c0-7.68,3.413-14.507,8.533-18.773v-48.64c-11.947-9.387-30.72-17.92-59.733-17.92c-81.92,0-85.333,68.267-85.333,68.267v42.667
		c-4.267,4.267-8.533,10.24-8.533,16.213v29.867c0,7.68,4.267,14.507,10.24,18.773c7.68,31.573,32.427,54.613,32.427,54.613v27.307
		c0,10.24-5.12,18.773-13.653,23.893l-57.173,35.84c-19.627,9.387-31.573,29.867-31.573,51.2v23.893H127v-27.307
		C127,428.653,140.653,405.613,162.84,393.667"/>
	<path style="fill:#FFFFFF;" d="M162.84,393.667l50.347-27.307c0,0,0,0,0.853,0l24.747-13.653
		C249.027,347.587,255,336.493,255,325.4v-31.573c0,0-9.387-11.093-17.92-28.16l0,0l0,0c-0.853-2.56-2.56-5.12-3.413-6.827
		c0,0,0-0.853-0.853-0.853c-0.853-2.56-2.56-5.12-3.413-7.68c0,0,0,0,0-0.853c-0.853-2.56-1.707-5.12-2.56-7.68
		c0-0.853-0.853-1.707-0.853-2.56c-0.853-2.56-1.707-5.973-2.56-8.533c-5.973-5.12-11.093-12.8-11.093-22.187V174.36
		c0-7.68,3.413-14.507,8.533-18.773v-48.64c-11.947-9.387-30.72-17.92-59.733-17.92c-81.92,0-85.333,68.267-85.333,68.267v42.667
		c-4.267,4.267-8.533,10.24-8.533,16.213v29.867c0,7.68,4.267,14.507,10.24,18.773c7.68,31.573,32.427,54.613,32.427,54.613v27.307
		c0,10.24-5.12,18.773-13.653,23.893l-57.173,35.84c-19.627,9.387-31.573,29.867-31.573,51.2v23.893H127v-27.307
		C127,428.653,140.653,405.613,162.84,393.667"/>
	<path style="fill:#E2E3E5;" d="M188.44,393.667l50.347-27.307c0,0,0,0,0.853,0l24.747-13.653
		c10.24-5.12,16.213-16.213,16.213-27.307v-31.573c0,0-9.387-11.093-17.92-28.16l0,0l0,0c-0.853-2.56-2.56-5.12-3.413-6.827
		c0,0,0-0.853-0.853-0.853c-0.853-2.56-2.56-5.12-3.413-7.68c0,0,0,0,0-0.853c-0.853-2.56-1.707-5.12-2.56-7.68
		c0-0.853-0.853-1.707-0.853-2.56c-0.853-2.56-1.707-5.973-2.56-8.533c-5.973-5.12-11.093-12.8-11.093-22.187V174.36
		c0-7.68,3.413-14.507,8.533-18.773v-48.64c-11.947-9.387-30.72-17.92-59.733-17.92c-81.92,0-85.333,68.267-85.333,68.267v42.667
		c-4.267,4.267-8.533,10.24-8.533,16.213v29.867c0,7.68,4.267,14.507,10.24,18.773c7.68,31.573,32.427,54.613,32.427,54.613v27.307
		c0,10.24-5.12,18.773-13.653,23.893l-57.173,35.84c-19.627,9.387-31.573,29.867-31.573,51.2v23.893H152.6v-27.307
		C152.6,428.653,166.253,405.613,188.44,393.667"/>
	<path style="fill:#CCCCCC;" d="M464.92,394.52L383,353.56c-10.24-5.12-17.067-16.213-17.067-28.16v-31.573
		c2.56-2.56,5.12-5.973,7.68-10.24c11.093-15.36,19.627-33.28,25.6-51.2c10.24-3.413,17.92-12.8,17.92-24.747v-34.133
		c0-7.68-3.413-14.507-8.533-18.773v-48.64c0,0,10.24-76.8-93.867-76.8s-93.867,76.8-93.867,76.8v49.493
		c-5.12,5.12-8.533,11.093-8.533,18.773v34.133c0,9.387,5.12,17.067,11.947,21.333c8.533,37.547,30.72,64,30.72,64V325.4
		c0,11.093-5.973,22.187-16.213,27.307L162.84,394.52C140.653,406.467,127,429.507,127,454.253v27.307h375.467v-25.6
		C502.467,429.507,487.96,405.613,464.92,394.52"/>
	<path style="fill:#E2E3E5;" d="M439.32,394.52l-81.92-40.96c-10.24-5.12-17.067-16.213-17.067-28.16v-31.573
		c2.56-2.56,5.12-5.973,7.68-10.24c11.093-15.36,19.627-33.28,25.6-51.2c10.24-3.413,17.92-12.8,17.92-24.747v-34.133
		c0-7.68-3.413-14.507-8.533-18.773v-48.64c0,0,10.24-76.8-93.867-76.8c-48.64,0-59.733,76.8-59.733,76.8v49.493
		c-5.12,5.12-8.533,11.093-8.533,18.773v34.133c0,9.387,5.12,17.067,11.947,21.333c8.533,37.547,30.72,64,30.72,64V325.4
		c0,11.093-5.973,22.187-16.213,27.307l-75.947,41.813c-22.187,11.947-35.84,34.987-35.84,59.733v27.307h341.333v-25.6
		C476.867,429.507,462.36,405.613,439.32,394.52"/>
	<path style="fill:#B6B6B6;" d="M502.467,490.093H127c-5.12,0-8.533-3.413-8.533-8.533v-27.307c0-28.16,15.36-53.76,40.107-67.413
		l75.947-41.813c7.68-4.267,11.947-11.947,11.947-19.627v-28.16c-5.973-7.68-22.187-30.72-29.867-61.44
		c-7.68-6.827-12.8-17.067-12.8-27.307V174.36c0-8.533,3.413-16.213,8.533-22.187v-45.227c-0.853-4.267-2.56-32.427,17.92-55.467
		c17.067-20.48,46.08-30.72,84.48-30.72s67.413,10.24,84.48,29.867c20.48,23.04,17.92,51.2,17.92,55.467v45.227
		c5.12,5.973,8.533,14.507,8.533,22.187v34.133c0,13.653-7.68,25.6-19.627,30.72c-5.973,17.92-14.507,34.133-25.6,49.493
		c-1.707,3.413-4.267,5.973-5.973,8.533V325.4c0,8.533,5.12,16.213,12.8,20.48l81.92,40.96c26.453,12.8,42.667,39.253,42.667,69.12
		v25.6C511,486.68,507.587,490.093,502.467,490.093z M135.533,473.027h358.4V455.96c0-23.04-12.8-43.52-33.28-53.76l0,0
		l-81.92-40.96c-12.8-6.827-21.333-20.48-21.333-35.84v-31.573c0-1.707,0.853-4.267,1.707-5.973c1.707-2.56,4.267-5.973,6.827-9.387
		c10.24-14.507,18.773-30.72,23.893-48.64c0.853-2.56,2.56-5.12,5.973-5.12c7.68-2.56,11.947-8.533,11.947-16.213V174.36
		c0-5.12-1.707-9.387-5.973-12.8c-1.707-1.707-2.56-4.267-2.56-5.973v-49.493v-0.853c0,0,2.56-23.893-13.653-42.667
		c-13.653-16.213-37.547-24.747-70.827-24.747s-57.173,8.533-71.68,23.893C226.84,80.493,229.4,104.387,229.4,104.387v0.853v49.493
		c0,2.56-0.853,5.12-2.56,5.973c-4.267,4.267-5.973,8.533-5.973,13.653v34.133c0,5.973,2.56,11.093,7.68,14.507
		c1.707,0.853,3.413,3.413,3.413,5.12c7.68,34.987,29.013,59.733,29.013,60.587c0.853,1.707,1.707,3.413,1.707,5.12V325.4
		c0,14.507-7.68,28.16-20.48,34.987L166.253,402.2c-19.627,10.24-31.573,30.72-31.573,52.907v17.92H135.533z"/>
	<path id="SVGCleanerId_0" style="fill:#B6B6B6;" d="M127,490.093H7.533c-5.12,0-8.533-3.413-8.533-8.533v-23.893
		c0-24.747,13.653-47.787,34.987-59.733l57.173-35.84c5.973-3.413,10.24-9.387,10.24-16.213v-23.04
		c-6.827-6.827-23.893-27.307-30.72-53.76c-7.68-5.973-11.947-14.507-11.947-23.04v-29.867c0-6.827,3.413-13.653,8.533-19.627
		v-39.253c0-0.853,5.12-76.8,93.867-76.8c25.6,0,47.787,6.827,64.853,19.627c2.56,1.707,3.413,4.267,3.413,6.827v47.787
		c0,2.56-0.853,5.12-2.56,5.973c-4.267,4.267-5.973,8.533-5.973,13.653v34.133c0,5.973,2.56,11.093,7.68,14.507
		c1.707,0.853,3.413,3.413,3.413,5.12c0.853,2.56,1.707,5.973,2.56,8.533l0.853,1.707c0.853,2.56,1.707,5.12,2.56,6.827
		c0.853,3.413,2.56,5.973,3.413,8.533l-7.68,4.267l7.68-3.413c0.853,2.56,2.56,4.267,3.413,6.827
		c8.533,16.213,17.067,26.453,17.067,26.453c0.853,1.707,1.707,3.413,1.707,5.12v31.573c0,14.507-7.68,28.16-20.48,34.987
		l-24.747,13.653l0,0l0,0l-50.347,27.307c-19.627,10.24-31.573,30.72-31.573,52.907v28.16
		C135.533,486.68,132.12,490.093,127,490.093z M16.067,473.027h102.4v-18.773c0-28.16,15.36-53.76,40.107-67.413l0,0l49.493-27.307
		c0.853-0.853,1.707-0.853,2.56-1.707l23.893-12.8c7.68-4.267,11.947-11.947,11.947-19.627v-28.16
		c-3.413-4.267-10.24-13.653-17.067-27.307c-0.853-2.56-2.56-5.12-3.413-7.68l-0.853-0.853c-0.853-2.56-2.56-5.12-3.413-8.533
		c-0.853-3.413-1.707-5.973-2.56-8.533l-0.853-2.56c-0.853-1.707-0.853-4.267-1.707-5.973c-7.68-6.827-12.8-17.067-12.8-27.307
		V174.36c0-8.533,3.413-16.213,8.533-22.187v-40.96c-13.653-8.533-30.72-13.653-51.2-13.653c-72.533,0-76.8,58.027-76.8,60.587
		v41.813c0,2.56-0.853,5.12-2.56,5.973c-4.267,3.413-5.973,6.827-5.973,10.24v29.867c0,4.267,2.56,8.533,5.973,11.093
		c1.707,0.853,3.413,3.413,3.413,5.12c6.827,29.013,29.013,50.347,29.867,51.2c1.707,1.707,2.56,4.267,2.56,5.973v27.307
		c0,12.8-6.827,24.747-18.773,30.72l-56.32,35.84c-16.213,8.533-26.453,25.6-26.453,44.373V473.027z"/>
	<g>
		<path id="SVGCleanerId_0_1_" style="fill:#B6B6B6;" d="M127,490.093H7.533c-5.12,0-8.533-3.413-8.533-8.533v-23.893
			c0-24.747,13.653-47.787,34.987-59.733l57.173-35.84c5.973-3.413,10.24-9.387,10.24-16.213v-23.04
			c-6.827-6.827-23.893-27.307-30.72-53.76c-7.68-5.973-11.947-14.507-11.947-23.04v-29.867c0-6.827,3.413-13.653,8.533-19.627
			v-39.253c0-0.853,5.12-76.8,93.867-76.8c25.6,0,47.787,6.827,64.853,19.627c2.56,1.707,3.413,4.267,3.413,6.827v47.787
			c0,2.56-0.853,5.12-2.56,5.973c-4.267,4.267-5.973,8.533-5.973,13.653v34.133c0,5.973,2.56,11.093,7.68,14.507
			c1.707,0.853,3.413,3.413,3.413,5.12c0.853,2.56,1.707,5.973,2.56,8.533l0.853,1.707c0.853,2.56,1.707,5.12,2.56,6.827
			c0.853,3.413,2.56,5.973,3.413,8.533l-7.68,4.267l7.68-3.413c0.853,2.56,2.56,4.267,3.413,6.827
			c8.533,16.213,17.067,26.453,17.067,26.453c0.853,1.707,1.707,3.413,1.707,5.12v31.573c0,14.507-7.68,28.16-20.48,34.987
			l-24.747,13.653l0,0l0,0l-50.347,27.307c-19.627,10.24-31.573,30.72-31.573,52.907v28.16
			C135.533,486.68,132.12,490.093,127,490.093z M16.067,473.027h102.4v-18.773c0-28.16,15.36-53.76,40.107-67.413l0,0l49.493-27.307
			c0.853-0.853,1.707-0.853,2.56-1.707l23.893-12.8c7.68-4.267,11.947-11.947,11.947-19.627v-28.16
			c-3.413-4.267-10.24-13.653-17.067-27.307c-0.853-2.56-2.56-5.12-3.413-7.68l-0.853-0.853c-0.853-2.56-2.56-5.12-3.413-8.533
			c-0.853-3.413-1.707-5.973-2.56-8.533l-0.853-2.56c-0.853-1.707-0.853-4.267-1.707-5.973c-7.68-6.827-12.8-17.067-12.8-27.307
			V174.36c0-8.533,3.413-16.213,8.533-22.187v-40.96c-13.653-8.533-30.72-13.653-51.2-13.653c-72.533,0-76.8,58.027-76.8,60.587
			v41.813c0,2.56-0.853,5.12-2.56,5.973c-4.267,3.413-5.973,6.827-5.973,10.24v29.867c0,4.267,2.56,8.533,5.973,11.093
			c1.707,0.853,3.413,3.413,3.413,5.12c6.827,29.013,29.013,50.347,29.867,51.2c1.707,1.707,2.56,4.267,2.56,5.973v27.307
			c0,12.8-6.827,24.747-18.773,30.72l-56.32,35.84c-16.213,8.533-26.453,25.6-26.453,44.373V473.027z"/>
	</g>
</g>
<g>
</g>
<g>
</g>
<g>
</g>
<g>
</g>
<g>
</g>
<g>
</g>
<g>
</g>
<g>
</g>
<g>
</g>
<g>
</g>
<g>
</g>
<g>
</g>
<g>
</g>
<g>
</g>
<g>
</g>
</svg>
